<?xml version="1.0" encoding="UTF-8" standalone="no"?><!DOCTYPE svg PUBLIC "-//W3C//DTD SVG 1.1//EN" "http://www.w3.org/Graphics/SVG/1.1/DTD/svg11.dtd"><svg width="100%" height="100%" viewBox="0 0 842 596" version="1.1" xmlns="http://www.w3.org/2000/svg" xmlns:xlink="http://www.w3.org/1999/xlink" xml:space="preserve" xmlns:serif="http://www.serif.com/" style="fill-rule:evenodd;clip-rule:evenodd;stroke-linejoin:round;stroke-miterlimit:2;"><rect id="Página-7" serif:id="Página 7" x="0" y="0" width="841.89" height="595.276" style="fill:none;"/><clipPath id="_clip1"><rect x="0" y="0" width="841.89" height="595.276"/></clipPath><g clip-path="url(#_clip1)"><g id="Camada-1" serif:id="Camada 1"><g opacity="0.71"><path d="M600.245,163.484l-52.235,13.288c-96.619,24.604 -118.64,78.65 -120.1,119.66l0,2.416c1.46,41.01 23.481,95.056 120.1,119.66l50.771,12.918c79.776,20.286 162.092,41.234 243.109,62.366l0,-70.256c-75.65,-19.66 -152.093,-39.126 -226.351,-58.011l-50.752,-12.91c-65.376,-16.649 -68.369,-42.741 -68.868,-54.975c0.499,-12.234 3.492,-38.326 68.868,-54.975l52.216,-13.284c73.779,-18.763 149.725,-38.103 224.887,-57.639l0,-70.258c-80.531,21.007 -162.35,41.833 -241.645,62" style="fill:#dadada;fill-rule:nonzero;"/><path d="M770.731,299.287c0,39.139 31.729,70.867 70.867,70.867c0.099,0 0.194,-0.015 0.292,-0.015l0,-141.704c-0.098,-0.001 -0.193,-0.015 -0.292,-0.015c-39.138,0 -70.867,31.728 -70.867,70.867" style="fill:#dadada;fill-rule:nonzero;"/></g></g></g></svg>