<?xml version="1.0" encoding="UTF-8" standalone="no"?><!DOCTYPE svg PUBLIC "-//W3C//DTD SVG 1.1//EN" "http://www.w3.org/Graphics/SVG/1.1/DTD/svg11.dtd"><svg width="100%" height="100%" viewBox="0 0 842 596" version="1.1" xmlns="http://www.w3.org/2000/svg" xmlns:xlink="http://www.w3.org/1999/xlink" xml:space="preserve" xmlns:serif="http://www.serif.com/" style="fill-rule:evenodd;clip-rule:evenodd;stroke-linejoin:round;stroke-miterlimit:2;"><rect id="Página-8" serif:id="Página 8" x="0" y="0" width="841.89" height="595.276" style="fill:none;"/><path d="M636.711,242.44l-33.565,0c-11.401,0 -21.702,4.747 -29.077,12.349c-7.375,-7.602 -17.677,-12.349 -29.08,-12.349l-33.562,0c-22.363,0 -40.552,18.192 -40.552,40.552l0,99.168l22.946,0l0,-99.168c0,-9.707 7.898,-17.603 17.605,-17.603l33.562,0c9.71,0 17.605,7.895 17.605,17.603l0,99.168l22.949,0l0,-99.168c0,-9.707 7.898,-17.603 17.603,-17.603l33.565,0c9.707,0 17.605,7.895 17.605,17.603l0,99.168l22.946,0l0,-99.168c0,-22.36 -18.192,-40.552 -40.552,-40.552" style="fill:#a3ed40;fill-rule:nonzero;"/><rect x="139.078" y="242.441" width="22.949" height="139.72" style="fill:#a3ed40;"/><path d="M66.295,242.44l-66.295,0l0,22.949l66.295,0c9.707,0 17.605,7.895 17.605,17.603l0,33.565c0,9.705 -7.898,17.603 -17.605,17.603l-66.295,0l0,48.001l22.946,0l0,-25.052l43.349,0c22.36,0 40.554,-18.192 40.554,-40.552l0,-33.565c0,-22.36 -18.194,-40.552 -40.554,-40.552" style="fill:#a3ed40;fill-rule:nonzero;"/><path d="M398.172,318.837l-4.356,17.127c-5.621,22.064 -14.425,23.076 -18.554,23.245c-4.129,-0.169 -12.935,-1.181 -18.554,-23.245l-4.485,-17.621c-6.332,-24.901 -12.859,-50.531 -19.452,-75.897l-23.71,0c7.087,27.178 14.116,54.792 20.923,81.552l4.485,17.629c8.302,32.609 26.544,40.039 40.383,40.533l0.816,0c13.841,-0.494 32.08,-7.924 40.385,-40.533l4.358,-17.135c6.847,-26.924 13.915,-54.705 21.047,-82.046l-23.71,0c-6.635,25.53 -13.205,51.329 -19.578,76.391" style="fill:#a3ed40;fill-rule:nonzero;"/><path d="M247.303,213.115l-23.522,0c0,16.308 -13.218,29.529 -29.526,29.529l0,23.52c16.308,0 29.526,13.223 29.526,29.529l23.522,0c0,-16.306 13.22,-29.529 29.529,-29.529l0,-23.52c-16.308,0 -29.529,-13.22 -29.529,-29.529" style="fill:#a3ed40;fill-rule:nonzero;"/><path d="M820.967,300.608l-4.485,-17.629c-8.302,-32.609 -26.544,-40.039 -40.383,-40.533l-0.816,0c-13.841,0.494 -32.08,7.924 -40.383,40.533l-4.361,17.135c-6.847,26.924 -13.915,54.705 -21.047,82.046l23.71,0c6.635,-25.53 13.205,-51.329 19.578,-76.391l4.356,-17.127c5.621,-22.064 14.425,-23.076 18.554,-23.242c4.129,0.166 12.935,1.178 18.554,23.242l4.485,17.621c6.332,24.901 12.859,50.531 19.452,75.897l23.71,0c-7.087,-27.178 -14.116,-54.792 -20.923,-81.552" style="fill:#a3ed40;fill-rule:nonzero;"/><path d="M775.135,358.144c-13.21,0 -23.916,10.708 -23.916,23.916c0,0.034 0.003,0.066 0.005,0.1l47.824,0c0,-0.034 0.003,-0.066 0.003,-0.1c0,-13.207 -10.706,-23.916 -23.916,-23.916" style="fill:#a3ed40;fill-rule:nonzero;"/></svg>