<?xml version="1.0" encoding="UTF-8" standalone="no"?><!DOCTYPE svg PUBLIC "-//W3C//DTD SVG 1.1//EN" "http://www.w3.org/Graphics/SVG/1.1/DTD/svg11.dtd"><svg width="100%" height="100%" viewBox="0 0 842 246" version="1.1" xmlns="http://www.w3.org/2000/svg" xmlns:xlink="http://www.w3.org/1999/xlink" xml:space="preserve" xmlns:serif="http://www.serif.com/" style="fill-rule:evenodd;clip-rule:evenodd;stroke-linejoin:round;stroke-miterlimit:2;"><rect id="Página-1" serif:id="Página 1" x="0" y="0" width="841.89" height="245.311" style="fill:none;"/><g id="Camada-1" serif:id="Camada 1"><path d="M331.511,99.507l-72.657,0c-1.739,0 -2.739,0.992 -2.739,2.715l0,135.905c0,1.723 1,2.715 2.739,2.715l10.179,0c1.747,0 2.739,-0.992 2.739,-2.715l0.056,-61.89l40.12,0c1.747,0 2.747,-0.985 2.747,-2.715l0,-8.321c0,-1.723 -1,-2.715 -2.747,-2.715l-40.175,-0.056l0.056,-49.171l59.683,0c1.739,0 2.739,-0.985 2.739,-2.715l0,-8.321c0,-1.723 -1,-2.715 -2.739,-2.715" style="fill-rule:nonzero;"/><path d="M353.568,99.514l-10.179,0c-1.739,0 -2.739,0.992 -2.739,2.715l0,135.905c0,1.723 1,2.715 2.739,2.715l10.179,0c1.739,0 2.739,-0.992 2.739,-2.715l0,-135.905c0,-1.723 -1,-2.715 -2.739,-2.715" style="fill-rule:nonzero;"/><path d="M437.66,104.298c-6.272,-3.414 -16.094,-5.145 -24.304,-5.145c-8.21,0 -16.785,1.731 -23.057,5.145c-6.288,3.422 -11.219,8.313 -14.665,14.554c-3.446,6.217 -5.185,13.434 -5.185,21.445l0,59.961c0,8.011 1.747,15.197 5.185,21.35c3.446,6.169 8.376,11.028 14.665,14.45c6.264,3.406 14.847,5.137 23.057,5.137c8.21,0 18.031,-1.731 24.304,-5.137c6.28,-3.422 11.251,-8.281 14.76,-14.442c3.509,-6.161 5.288,-13.339 5.288,-21.358l0,-59.961c0,-8.011 -1.779,-15.228 -5.288,-21.453c-3.509,-6.233 -8.48,-11.132 -14.76,-14.546m4.391,35.602l0,60.954c0,7.948 -2.414,14.434 -7.178,19.286c-4.756,4.843 -13.641,7.305 -21.517,7.305c-7.741,0 -15.324,-2.461 -20.072,-7.305c-4.764,-4.843 -7.178,-11.338 -7.178,-19.286l0,-60.954c0,-8.083 2.414,-14.673 7.178,-19.587c4.756,-4.915 12.33,-7.4 20.072,-7.4c7.868,0 16.753,2.485 21.517,7.4c4.764,4.915 7.178,11.505 7.178,19.587" style="fill-rule:nonzero;"/><path d="M512.867,99.157c-12.251,0 -23.502,3.636 -30.997,10.798c-7.511,7.178 -11.306,16.848 -11.306,28.758l0,62.732c0,11.902 3.795,21.612 11.298,28.845c7.495,7.233 21.239,10.909 33.49,10.909c12.386,0 22.47,-3.636 29.965,-10.806c7.495,-7.17 11.298,-16.777 11.298,-28.551l0,-1.389c0,-1.723 -0.992,-2.715 -2.692,-2.715l-10.226,-0.595c-1.739,0 -2.739,0.921 -2.739,2.517l0,2.779c0,7.416 -2.374,13.498 -7.058,18.087c-4.692,4.589 -10.933,6.916 -18.547,6.916c-7.614,0 -17.547,-2.295 -22.168,-6.812c-4.621,-4.526 -6.963,-10.639 -6.963,-18.19l0,-64.518c0,-7.551 2.342,-13.672 6.963,-18.19c4.629,-4.526 12.076,-6.82 19.683,-6.82c7.606,0 16.332,2.326 21.024,6.916c4.692,4.597 7.066,10.679 7.066,18.095l0,2.771c0,1.604 1,2.525 2.771,2.525l10.147,-0.397c1.747,0 2.739,-0.992 2.739,-2.723l0,-1.779c0,-11.775 -3.803,-21.35 -11.306,-28.464c-7.495,-7.098 -20.064,-10.695 -32.442,-10.695" style="fill-rule:nonzero;"/><path d="M631.885,176.059l-0.008,-0.016c7.686,-2.16 13.839,-6.519 18.301,-12.95c4.454,-6.431 6.709,-15.53 6.709,-24.621c0,-7.606 -1.532,-14.45 -4.573,-20.342c-3.041,-5.907 -7.368,-10.536 -12.854,-13.76c-5.478,-3.224 -11.814,-4.859 -18.841,-4.859l-47.289,0c-1.739,0 -2.739,0.992 -2.739,2.715l0,135.905c0,1.731 1,2.715 2.739,2.715l10.179,0c1.739,0 2.739,-0.985 2.739,-2.715l0.056,-60.652l30.719,0l0.111,0.127l24.748,61.192c0.508,1.342 1.509,2.048 2.89,2.048l10.576,0c1.62,0 2.541,-0.842 2.541,-2.318l-0.254,-1.08l-25.749,-61.39Zm9.345,-37.587c0,7.432 -2.088,14.768 -6.201,19.357c-4.089,4.565 -9.544,6.884 -16.205,6.884l-32.577,-0.056l0,-51.338l0.056,-0.056l32.521,0c6.661,0 12.116,2.318 16.205,6.884c4.113,4.597 6.201,10.758 6.201,18.325" style="fill-rule:nonzero;"/><path d="M753.91,99.507l-10.179,0c-1.739,0 -2.739,0.992 -2.739,2.715l0,97.834c0,8.21 -2.414,14.903 -7.185,19.889c-4.748,4.978 -12.95,7.495 -20.683,7.495c-7.741,0 -15.943,-2.517 -20.691,-7.495c-4.764,-4.978 -7.178,-11.671 -7.178,-19.889l0,-97.834c0,-1.723 -1,-2.715 -2.739,-2.715l-10.179,0c-1.747,0 -2.739,0.992 -2.739,2.715l0,97.04c0,8.273 1.739,15.657 5.177,21.938c3.446,6.304 8.376,11.267 14.665,14.752c6.264,3.478 15.475,5.24 23.684,5.24c8.21,0 17.42,-1.763 23.684,-5.24c6.288,-3.486 11.219,-8.448 14.665,-14.752c3.43,-6.28 5.177,-13.664 5.177,-21.938l0,-97.04c0,-1.723 -1,-2.715 -2.739,-2.715" style="fill-rule:nonzero;"/><path d="M841.89,111.533l0,-9.305c0,-1.731 -1,-2.723 -2.739,-2.723l-73.252,0c-1.747,0 -2.739,0.992 -2.739,2.723l0,8.313c0,1.731 0.992,2.723 2.739,2.723l58.572,0l-60.66,111.458c-0.429,1.008 -0.651,3.208 -0.651,4.097l0,9.305c0,1.731 0.992,2.723 2.739,2.723l73.252,0c1.739,0 2.739,-0.992 2.739,-2.723l0,-8.313c0,-1.731 -1,-2.723 -2.739,-2.723l-58.572,0l60.668,-112.721c0.429,-1.151 0.643,-2.072 0.643,-2.834" style="fill-rule:nonzero;"/><path d="M220.066,222.526c-0.064,-0.135 -0.135,-0.31 -0.262,-0.508l-0.103,-0.175c-0.127,-0.183 -0.286,-0.365 -0.468,-0.564l-4.295,-4.192l0,-97.326l3.541,-3.462l0,-11.767c0.032,-1.223 -0.064,-2.239 -0.699,-3.097c-0.77,-1.016 -1.929,-1.596 -3.184,-1.596l-6.074,0l0,-37.738c0,-1.302 -0.675,-2.541 -1.802,-3.279l-0.461,-0.294l0.286,-0.468c2.39,-3.906 3.66,-8.345 3.66,-12.847c0,-10.536 -7.082,-20.191 -17.237,-23.486l-0.333,-0.095l-1.874,-11.235c-0.532,-3.009 -3.065,-4.399 -5.336,-4.422c-2.175,0.056 -4.653,1.429 -5.201,4.351l-2.072,11.259l-0.333,0.103c-10.234,3.239 -17.38,12.918 -17.38,23.526c0,4.478 1.247,8.893 3.621,12.783l0.27,0.453l-0.437,0.302c-1.08,0.723 -1.723,1.937 -1.723,3.239l0,29.917l-8.091,0l0,-19.198l2.755,-2.612l0,-9.766c0,-2.152 -1.771,-3.898 -3.946,-3.898l-11.401,0c-0.834,0 -1.802,0.111 -2.382,0.794l-2.295,2.612l-3.533,0l0.937,-2.962c0.278,-1.191 -0.032,-2.453 -0.834,-3.406c-0.794,-1 -1.969,-1.556 -3.239,-1.556l-39.873,0c-1.262,0 -2.509,0.588 -3.255,1.548c-0.826,1.008 -1.104,2.287 -0.778,3.621l0.461,2.755l-3.652,0l-2.009,-2.612c-0.572,-0.675 -1.532,-0.834 -2.422,-0.834l-11.409,0c-2.175,0 -3.954,1.747 -3.954,3.914l0,9.79l2.787,2.612l0,19.198l-8.146,0l0,-29.806c0,-1.326 -0.667,-2.557 -1.779,-3.271l-0.468,-0.302l0.286,-0.468c2.39,-3.898 3.66,-8.337 3.66,-12.847c0,-10.536 -7.09,-20.191 -17.245,-23.494l-0.326,-0.103l-1.898,-11.227c-0.516,-3.033 -3.104,-4.415 -5.288,-4.415c-2.731,0.056 -4.78,1.763 -5.224,4.335l-2.08,11.274l-0.333,0.103c-10.226,3.247 -17.364,12.918 -17.364,23.526c0,4.486 1.247,8.9 3.613,12.783l0.278,0.453l-0.445,0.302c-1.088,0.738 -1.707,1.913 -1.707,3.239l0,37.912l-5.955,0c-1.27,0 -2.438,0.572 -3.192,1.58c-0.659,0.865 -0.762,1.882 -0.73,2.977l0,11.838l3.414,3.168l0,97.619l-3.986,4.295c-0.73,0.723 -1.12,1.675 -1.12,2.715l0,13.307c0,2.168 1.779,3.938 3.962,3.938l50.854,0l8.464,-8.543l93.57,0l8.488,8.543l51.076,0c2.175,0 3.946,-1.771 3.946,-3.938l0,-12.1c0,-0.54 -0.103,-2.31 -0.294,-2.779m-10.068,7.543l-39.977,0l-8.615,-8.543l-103.217,0l-8.615,8.543l-38.286,0l0,-3.319l5.169,-5.224l0,-103.773l-3.382,-3.097l0,-5.232l9.829,0l0,-42.009l3.271,-3.303l0,-8.241c-0.429,-0.349 -0.834,-0.73 -1.215,-1.127c-0.897,-0.834 -1.628,-1.794 -2.152,-2.914c-1.032,-1.898 -1.62,-4.065 -1.62,-6.368c0,-7.424 6.066,-13.434 13.545,-13.434c7.471,0 13.537,6.01 13.537,13.434c0,2.985 -0.992,5.733 -2.652,7.964c-0.111,0.175 -0.254,0.341 -0.389,0.508c-0.032,0.056 -0.079,0.095 -0.119,0.151c-0.206,0.254 -0.437,0.5 -0.675,0.738c-0.349,0.357 -0.707,0.699 -1.096,1.008l0,8.281l3.2,3.239l0,35.665l24.701,0l6.082,-6.209l0,-26.709l21.731,0l0,-6.9l22.001,0l0,6.987l21.731,-0.087l0,26.146l6.669,6.773l24.065,0l0,-35.705l3.247,-3.239l0,-8.178c-0.5,-0.405 -0.969,-0.85 -1.413,-1.326c-0.77,-0.723 -1.389,-1.572 -1.858,-2.533c-1.104,-1.945 -1.739,-4.184 -1.739,-6.574c0,-7.424 6.058,-13.434 13.537,-13.434c7.479,0 13.537,6.01 13.537,13.434c0,2.954 -0.969,5.677 -2.596,7.892c-0.143,0.206 -0.294,0.413 -0.461,0.611c-0.032,0.032 -0.064,0.071 -0.095,0.111c-0.198,0.238 -0.405,0.476 -0.635,0.699c-0.357,0.365 -0.723,0.707 -1.112,1.032l0,8.265l3.247,3.041l0,42.247l9.996,0l0,5.875l-3.589,3.557l0,103.074l6.407,6.376l0,1.826Z" style="fill-rule:nonzero;"/></g></svg>