<?xml version="1.0" encoding="utf-8"?>
<!-- Generator: Adobe Illustrator 16.0.0, SVG Export Plug-In . SVG Version: 6.00 Build 0)  -->
<!DOCTYPE svg PUBLIC "-//W3C//DTD SVG 1.1//EN" "http://www.w3.org/Graphics/SVG/1.1/DTD/svg11.dtd">
<svg version="1.1" xmlns="http://www.w3.org/2000/svg" xmlns:xlink="http://www.w3.org/1999/xlink" x="0px" y="0px" width="1080px"
	 height="400px" viewBox="0 0 1080 400" enable-background="new 0 0 1080 400" xml:space="preserve">
<g id="Layer_1">
	<g>
		<g>
			<g>
				<polygon points="614.36,302.331 548.436,197.339 585.869,189.726 614.36,232.317 653.204,174.169 699.245,163.483 				"/>
				<path d="M794.375,136.403h-28.802h-28.801l-62.83,165.928h52.185l10.02-25.673h29.427h29.428l10.02,25.673h52.183
					L794.375,136.403z M765.573,240.343h-19.723l19.723-60.735l19.724,60.735H765.573z"/>
				<g>
					<path d="M13.573,144.239l-0.951-0.83v-5.932l0.951-0.83c13.522,0.633,23.963,0.949,31.316,0.949
						c2.768,0,13.721-0.316,32.861-0.949c6.17-0.158,10.636-0.238,13.406-0.238c10.676,0,19.139,1.068,25.387,3.203
						s11.27,5.914,15.064,11.329c3.797,5.419,5.695,11.565,5.695,18.446c0,8.779-3.165,16.926-9.49,24.44
						c-6.328,7.514-16.608,12.89-30.846,16.134c8.543,0.79,15.58,1.937,21.117,3.439c5.535,1.502,10.321,3.814,14.355,6.939
						c4.033,3.125,7.217,7.178,9.549,12.16s3.501,10.756,3.501,17.32c0,5.142-0.792,10.36-2.374,15.658
						c-1.583,5.299-4.488,10.557-8.719,15.777c-4.232,5.219-9.354,9.689-15.363,13.406c-6.012,3.719-12.158,6.406-18.447,8.068
						c-6.285,1.66-14.099,2.49-23.43,2.49c-1.896,0-7.592-0.199-17.082-0.594c-10.519-0.236-16.213-0.355-17.084-0.355
						c-5.379,0-11.98,0.314-19.811,0.949l-0.947-0.949v-3.916l0.947-1.187c4.585-2.054,7.238-3.479,7.949-4.271
						c0.711-0.788,1.284-7.789,1.719-20.996c0.436-13.208,0.652-23.291,0.652-30.252v-43.537l-0.117-26.93
						c0-5.852-0.08-10.617-0.238-14.295c-0.16-3.678-0.375-6.305-0.65-7.889c-0.279-1.582-0.734-2.687-1.365-3.321
						c-0.635-0.633-1.524-1.167-2.672-1.601c-1.146-0.436-3.104-0.812-5.871-1.129L13.573,144.239z M56.16,206.521
						c3.955,0.316,8.423,0.475,13.405,0.475c16.373,0,27.76-2.926,34.166-8.779c6.406-5.852,9.609-13.879,9.609-24.082
						c0-5.931-1.229-10.974-3.678-15.125c-2.451-4.151-6.308-7.336-11.566-9.55c-5.262-2.214-12.397-3.322-21.413-3.322
						c-7.354,0-13.841,0.595-19.456,1.779c-0.711,7.118-1.067,19.537-1.067,37.251V206.521z M56.397,293.003
						c6.09,1.422,12.338,2.134,18.743,2.134c11.31,0,20.168-1.816,26.573-5.458c6.406-3.636,11.131-8.677,14.176-15.123
						c3.046-6.445,4.568-13.466,4.568-21.059c0-11.388-3.223-20.502-9.668-27.344c-6.447-6.838-20.387-10.262-41.818-10.262
						c-3.557,0-7.827,0.16-12.812,0.476v40.452L56.397,293.003z"/>
					<path d="M203.261,191.218l2.254,1.541c-0.475,4.588-0.828,12.734-1.066,24.439l8.898-11.271
						c2.924-3.716,5.516-6.585,7.771-8.601c2.253-2.017,4.882-3.577,7.888-4.686c3.005-1.108,6.091-1.661,9.253-1.661
						c3.479,0,6.763,0.711,9.847,2.137l0.83,1.66c-1.267,10.52-1.977,19.771-2.134,27.758h-5.34
						c-3.163-7.273-8.265-10.912-15.303-10.912c-4.905,0-9.176,1.563-12.812,4.687c-3.64,3.124-6.072,7.038-7.297,11.743
						c-1.228,4.706-1.838,10.658-1.838,17.854v13.167c0,2.373,0.157,8.186,0.475,17.438c0.313,9.255,0.651,14.593,1.007,16.017
						c0.356,1.423,0.908,2.473,1.661,3.144c0.752,0.671,1.74,1.126,2.965,1.363c1.226,0.239,6.861,0.634,16.906,1.187l1.068,0.948
						v4.984l-1.068,1.067c-10.518-0.635-21.514-0.949-32.979-0.949c-9.098,0-18.586,0.314-28.473,0.949l-1.066-1.067v-4.984
						l1.066-0.948c7.67-0.475,12.001-0.83,12.99-1.068c0.988-0.236,1.857-0.729,2.609-1.481c0.751-0.75,1.265-1.899,1.543-3.441
						c0.275-1.54,0.593-6.644,0.949-15.304c0.355-8.659,0.533-15.202,0.533-19.633v-23.37c0-3.162-0.159-7.476-0.475-12.931
						c-0.316-5.457-0.574-8.818-0.771-10.084c-0.198-1.264-0.813-2.195-1.838-2.787c-1.029-0.595-3.085-0.891-6.169-0.891
						l-9.967-0.119l-1.067-0.948v-5.1l0.95-0.95C180.167,198.296,192.9,195.33,203.261,191.218z"/>
					<path d="M278.831,223.841l-4.628-1.188l-0.948-1.187v-14.708c14.077-10.439,27.76-15.66,41.047-15.66
						c9.093,0,16.646,1.702,22.658,5.102c6.01,3.4,10.358,7.65,13.048,12.752c2.688,5.102,4.034,11.053,4.034,17.854l-0.593,23.845
						v35.352c0,4.824,0.335,7.752,1.009,8.779c0.672,1.029,1.441,1.719,2.312,2.076c0.87,0.354,2.493,0.652,4.864,0.889l6.762,0.592
						l0.951,1.07v4.745l-0.951,0.948c-5.772-0.475-11.15-0.711-16.133-0.711c-4.746,0-10.439,0.236-17.084,0.711l-1.777-1.66
						l0.473-19.1l-25.859,20.166c-4.354,1.819-9.098,2.729-14.236,2.729c-6.329,0-11.766-1.146-16.313-3.44
						c-4.549-2.291-8.027-5.494-10.439-9.608c-2.414-4.111-3.617-9.094-3.617-14.947c0-11.627,3.636-20.701,10.913-27.227
						c7.275-6.524,27.125-12.079,59.552-16.667c0-11.704-2.609-19.947-7.829-24.735c-5.219-4.783-12.219-7.178-20.997-7.178
						c-4.59,0-8.76,0.675-12.516,2.018c-3.757,1.347-5.912,2.433-6.467,3.262c-0.553,0.831-2.688,5.676-6.405,14.532
						L278.831,223.841z M333.874,242.585c-22.145,3.718-35.945,7.709-41.4,11.982c-5.457,4.27-8.188,10.873-8.188,19.809
						c0,12.339,6.129,18.508,18.389,18.508c10.519,0,20.92-6.09,31.199-18.269V242.585z"/>
				</g>
				<polygon points="999.754,136.403 970.949,236.665 942.146,136.403 874.522,136.403 874.522,302.331 915.848,302.331 
					915.848,177.102 919.604,177.102 950.286,302.331 970.949,302.331 991.612,302.331 1022.295,177.102 1026.052,177.102 
					1026.052,302.331 1067.377,302.331 1067.377,136.403 				"/>
				<path d="M478.642,257.147c-5.902,6.045-14.508,9.064-25.814,9.064c-11.361,0-19.979-3.034-25.855-9.105
					c-5.877-6.07-8.814-14.537-8.814-25.398v-25.166c0-10.915,2.952-19.395,8.857-25.438c5.9-6.043,14.506-9.064,25.813-9.064
					c11.363,0,19.98,3.008,25.856,9.022s8.883,16.276,8.883,16.276l20.349-8.547l-14.105-51.19
					c-11.464-3.753-25.131-5.951-40.62-6.052c-67.059-0.437-79.58,55.569-79.58,65.789c0,9.832,0,39.326,0,39.326
					c0,29.976,23.167,60.031,46.333,65.666c100.377,24.416,112.826-51.346,112.826-51.346l-44.575-14.32
					C487.823,238.29,484.545,251.105,478.642,257.147z"/>
			</g>
			<path fill="#AAAAAA" d="M611.887,307.179c0,0-74.469,19.258-91.881,19.258c-17.413,0-43.71-1.879-52.163,0
				s-108.01,30.994-104.253,33.812s207.316,15.028,220.591,12.21c13.273-2.817,93.714-33.321,89.762-32.43
				c-12.622,2.845-38.135-0.127-43.858-2.502C620.962,333.739,605.907,314.228,611.887,307.179z"/>
		</g>
		<g>
			<g>
				<path fill="#002A72" d="M675.217,96.728c-0.175-1.361-0.354-2.725-0.622-4.056c-5.297-26.273-28.551-46.121-56.362-46.121
					c-31.708,0-57.506,25.797-57.506,57.505c0,3.403,0.354,6.719,0.924,9.961c2.648,15.076,11.166,28.123,23.132,36.721
					c9.436,6.781,20.969,10.824,33.45,10.824c31.708,0,57.504-25.797,57.504-57.506C675.736,101.568,675.524,99.133,675.217,96.728z
					"/>
				<path fill="#FFFFFF" d="M632.55,103.815c12.816-3.99,29.773-6.174,42.615-7.468c-0.16-1.235-0.328-2.468-0.57-3.676
					c-0.332-1.645-0.733-3.264-1.202-4.854c-11.127-2.291-26.835-3.666-46.479-4.43c-25.882-1.007-49.405,12.263-66.042,24.318
					c0.152,2.135,0.414,4.239,0.778,6.311c2.648,15.076,11.166,28.123,23.132,36.721c1.574,1.132,3.212,2.18,4.897,3.152
					C599.379,134.84,610.087,110.81,632.55,103.815z"/>
			</g>
			<g>
				<path fill="#00922F" d="M725.831,27.123l-83.498,14.359c11.393,4.317,21.313,11.652,28.767,21.036h40.938h17.74l-9.973,14.671
					L660.2,164.878l80.466-18.633L725.831,27.123z"/>
				<path fill="#00922F" d="M566.306,62.518c2.769-3.483,5.872-6.686,9.269-9.556l-55.568,9.556H566.306z"/>
				<polygon fill="#00922F" points="484.549,68.615 520.013,197.339 580.988,183.22 508.915,77.188 501.146,65.761 				"/>
				<path fill="#FEED01" d="M618.697,170.997c-14.525,0-27.946-4.703-38.926-12.596c-4.11-2.953-7.859-6.367-11.198-10.15
					l22.226,32.697l2.83,4.164l2.831,4.164l17.9,26.334l24.586-36.172l3.888-5.72l3.888-5.722l3.252-4.784
					C640.633,168.174,629.99,170.997,618.697,170.997z"/>
				<path fill="#FEED01" d="M551.777,104.077c0-11.652,3-22.615,8.26-32.168h-43.355l42.343,62.293
					c-2.913-5.75-5.021-11.977-6.172-18.533C552.188,111.896,551.777,108.038,551.777,104.077z"/>
				<path fill="#FEED01" d="M712.038,71.909h-34.687c3.211,5.836,5.58,12.197,6.936,18.921c0.312,1.55,0.52,3.135,0.724,4.72
					c0.357,2.799,0.604,5.633,0.604,8.527c0,2.468-0.145,4.901-0.405,7.301L712.038,71.909z"/>
			</g>
		</g>
	</g>
</g>
<g id="Layer_2">
</g>
</svg>
